<?xml version="1.0" encoding="utf-8"?>
<!-- Generator: Adobe Illustrator 22.0.1, SVG Export Plug-In . SVG Version: 6.00 Build 0)  -->
<svg version="1.1" id="Слой_1" xmlns="http://www.w3.org/2000/svg" xmlns:xlink="http://www.w3.org/1999/xlink" x="0px" y="0px"
	 viewBox="0 0 649.9 403" style="enable-background:new 0 0 649.9 403;" xml:space="preserve">
<style type="text/css">
	.st0{fill:#f8fafc;}
	.st1{opacity:0.7;fill:#FEDE6E;}
	.st2{fill:url(#SVGID_1_);}
	.st3{fill:url(#SVGID_2_);}
	.st4{fill:#3E4042;}
	.st5{fill:#47494B;}
	.st6{opacity:0.6;fill:#D1ECFA;}
	.st7{fill:#FAB886;}
	.st8{fill:#FCD5B7;}
	.st9{fill:#8D6B5A;}
	.st10{fill:#323436;}
	.st11{fill:#234868;}
	.st12{fill:#30638E;}
	.st13{fill:#F85A3E;}
	.st14{fill:#F9765F;}
	.st15{fill:#795C4D;}
	.st16{opacity:0.75;fill:#D1ECFA;}
	.st17{opacity:0.5;fill:#f8fafc;}
	.st18{fill:url(#SVGID_3_);}
	.st19{fill:url(#SVGID_4_);}
	.st20{opacity:0.5;fill:#D1ECFA;}
	.st21{opacity:0.75;}
	.st22{fill:#D1ECFA;}
	.st23{fill:#E0F2FC;}
</style>
<g>
	<rect x="0" y="0" class="st0" width="621" height="403"/>
	<circle class="st1" cx="332.5" cy="96.9" r="40.6"/>
	<linearGradient id="SVGID_1_" gradientUnits="userSpaceOnUse" x1="327.3615" y1="240.6817" x2="327.3615" y2="77.5834">
		<stop  offset="0" style="stop-color:#f8fafc"/>
		<stop  offset="1" style="stop-color:#E8F6FE"/>
	</linearGradient>
	<path class="st2" d="M649.9,240.7L76.5,227.2c0,0-69.6-9-70.7-19.3C-6.8,94.1,105.4,190.2,120,174.5c26.9-29.1,64.3-63.7,106-85.7
		c37.7-19.9,51.8-7,51.8-7s47.4,38.2,53,41.5c5.6,3.3,17.3-8.4,40-18.2c16.5-7.1,31.9-12.6,40.4-5.2c8.5,7.4,27.4,46.3,35.2,50.8
		c7.8,4.4,43-21.5,43-21.5s4.8-5.6,12.6,0.7c7.8,6.3,116.7,89.7,129,93.4"/>
	<linearGradient id="SVGID_2_" gradientUnits="userSpaceOnUse" x1="310.5" y1="401.2594" x2="310.5" y2="215.3405">
		<stop  offset="0" style="stop-color:#f8fafc"/>
		<stop  offset="1" style="stop-color:#E8F6FE"/>
	</linearGradient>
	<path class="st3" d="M621,224.7c0,0-88.4,2.9-115.7,2.9c-21.5,0-44.2-15.2-63.8-11.7c-13.8,2.5-34.3,9.5-37.6,10.3
		c-26,6.4-42.1-1-55.7-1.5c-28.3-1.1-75.4,14.1-114,0c-10-3.6-31-4.6-41.6-4.6c-18.3,0-74,4.6-74,4.6H0v176.6h621V224.7z"/>
	<path class="st4" d="M328.9,155h-31.1c0,0-4.3,0.1-4.2,5.2c0.2,7.1-1.7,66.9-1.7,66.9s-0.3,5.6,3.3,6.4c3.6,0.8,31,1.4,36.4-0.7
		c1.8-0.7,1.2-4.3,1.6-6.2c0.4-1.9,3.2-63.7,3.2-63.7S333.9,155,328.9,155z"/>
	<path class="st5" d="M320.7,234c5.1,0.2,5.7-0.3,10.9,0.2c4.3,0,4.8-2.5,5-3.8c0.4-1.9,0-67.6,0-67.6s0.6-4.5-4.4-4.5h-31.1
		c0,0-4.3,0-4.2,5.2c0.2,7.2-1.7,67.5-1.7,67.5s0,1,0.2,2.2C303.7,234.5,312.1,233.8,320.7,234z"/>
	<ellipse class="st6" cx="317.9" cy="327.7" rx="38" ry="5.7"/>
	<path class="st7" d="M257.6,171.1c0,0,0.7,4,1.6,5.1c0.8,1.1,3.2,2.6,5.7,3.4s6.5,1.5,6.5,1.5s3,4.7,4.8,7.4
		c1.9,2.7,9.5,14.9,10.8,16.2c1.4,1.3,3.1,4.4,5.8,2.6c2.8-1.8,7.8-19.9,8.5-23.3c0.7-3.4-9.4-2.3-9.4-2.3l-2.8,14.3l-14-18.2
		c0,0-0.6-1-1.3-2.9s-0.2-3.2-0.9-3.9c-0.7-0.6-2.2-3.8-2.9-3.6c-0.6,0.2-0.9,1-0.4,1.7s1.4,4.9,0.6,5c-0.7,0.1-5.6-0.6-6.9-0.6
		C262.2,173.4,258.1,168.4,257.6,171.1z"/>
	<path class="st8" d="M295.1,181.6c0.6,2.4,1,4.9,0.9,7.5c-0.1,2.7,0,5.8-2.1,7.8c-1.7,1.5-3.8,0.7-4.7-0.9l0,0.1l-0.4-0.5
		c-0.6-0.1-5.8-6.6-8.1-9.2c-1.8-2-3.7-4.4-5.3-6.5c-0.7-0.9-1.8-2.8-3.7-2.7c-3.9,1.7-8.7,0.3-11.7-2.7c-0.5-0.1-1-0.2-1.4-0.1
		c0,0-0.1,0.1-0.1,0.1c0.2,0.7,0.5,1.4,0.8,1.8c0.8,1.1,3.2,2.6,5.7,3.4c2.5,0.8,6.5,1.5,6.5,1.5s3,4.7,4.8,7.4
		c1.9,2.7,9.5,14.9,10.8,16.2c1.4,1.3,3.1,4.4,5.8,2.6c2.8-1.8,7.8-19.9,8.5-23.3C301.8,181.9,298,181.5,295.1,181.6z"/>
	<path class="st7" d="M376,171.1c0,0-0.7,4-1.6,5.1c-0.8,1.1-3.1,2.6-5.6,3.4c-2.5,0.8-6.4,1.5-6.4,1.5s-2.9,4.7-4.8,7.4
		c-1.8,2.7-9.4,14.9-10.7,16.2s-3,4.4-5.8,2.6c-2.8-1.8-8.8-18.6-9.6-22c-0.7-3.4,8.1-5.9,8.1-5.9l5,16.7l13.9-18.2
		c0,0,0.6-1,1.3-2.9s0.2-3.2,0.9-3.9s2.2-3.8,2.8-3.6c0.6,0.2,0.9,1,0.4,1.7s-1.4,4.9-0.6,5c0.7,0.1,5.5-0.6,6.8-0.6
		C371.4,173.4,375.4,168.4,376,171.1z"/>
	<path class="st8" d="M375,172.7c-1.7,1.5-3.2,3.3-5.6,3.7c-2,0.4-5.2-0.8-7.1,0c-1.2,0.5-0.7,0.4-1.4,1.6c-0.1,0.1-0.5,1.5-0.6,1.7
		c-2.9,4.5-7.6,8.3-10.7,12.7c-0.9,1.3-2.8,3-4.7,3.7l0,0l-5-16.7c0,0-8.8,2.5-8.1,5.9c0.7,3.4,6.8,20.3,9.6,22
		c2.8,1.8,4.4-1.3,5.8-2.6c1.4-1.3,8.9-13.5,10.7-16.2c1.8-2.7,4.8-7.4,4.8-7.4s3.9-0.6,6.4-1.5c2.5-0.8,4.8-2.3,5.6-3.4
		c0.4-0.5,0.8-1.7,1.1-2.8C375.3,173.1,375.1,172.9,375,172.7z"/>
	<path class="st8" d="M305,164l6.7-1.3c0,0,0.1-4.4-0.6-6.7c-0.8-2.4,11.4-2.5,10.6-0.2c-0.5,1.6,0,6.7,0,6.7l5.5,1.8
		c0,0-9.6,8.9-13.1,7.3C310.7,170.1,305,164,305,164z"/>
	<path class="st8" d="M308.1,133.2c0,0-1.7,5.1-1.4,6.8c0.3,1.7,0.1,1.9,0.1,1.9s-2.1-2-2.6-0.5c-0.5,1.5,0.5,4.9,2.2,4.8
		c1.7-0.1,0.8-0.1,0.8-0.1s1.4,7.3,3.7,10.2c1.2,1.5,1.8,2.2,3.5,2.1c1.7-0.1,5.4,0,5.4,0s1.8-0.3,3.5-3.2c1.7-3,3-8.3,3.4-10.7
		c0.4-2.4,1.3-9-0.6-9.7c-1.8-0.7-5.7,1.5-5.7,1.5S312,132.1,308.1,133.2z"/>
	<path class="st9" d="M306.8,141.9c-2.1-1.5-1.8-1.9-1.8-1.9s-2.8-7.5-1.9-9.6c1.5-3.4,3.9-3.5,3.9-3.5s0.7-3.6,5.1-4
		c2.9-0.3,9.2,0.5,13.2,3.5c2.2,1.7,3.4,3.4,2.5,6.5c-0.4,1.6,0.2,2.1,0.2,2.1s1.5,4.2,0.5,6.1s-1.8,3.2-1.8,3.2s1.3-7.3-1-8.6
		c-1.6-0.9-1.9,3.5-5.4,2.1c-3.5-1.4-7.4-2.9-8.8-3.5c-2-0.8-3.5,1.1-4.2,2.1c-0.6,0.8-0.6,4.1-0.6,4.1S306.9,142,306.8,141.9z"/>
	<path class="st10" d="M298.9,320.3c0,0-0.5,3.3-0.9,5.2c-0.4,1.9,5.6,1.9,5.6,1.9s10.4,2.4,13.8,0.6c0.6-0.3,1.1-2.3,0.1-3.2
		c-2.7-2.5-6.3-1.9-6.3-1.9l-4.8-1.4L298.9,320.3z"/>
	<path class="st4" d="M317,328.1c0.3-1.2,0.4-3.3-3.4-4.5c-1.9-0.5-2-0.6-2.5-0.8c-1.5-0.5-3.1-1-3.4-1.7l-1.1-1.1l-6.8,0.2
		c-0.2,2.1,0.5,4.1,0.1,6.2c0,0.2-0.1,0.3-0.1,0.5c1.6,0.4,3.8,0.5,3.8,0.5S312.7,329.7,317,328.1z"/>
	<path class="st10" d="M321.3,320.3c0,0-0.5,3.3-0.9,5.2s5.6,1.9,5.6,1.9s10.4,2.4,13.8,0.6c0.6-0.3,1.1-2.3,0.1-3.2
		c-2.7-2.5-6.3-1.9-6.3-1.9l-4.3-1.9L321.3,320.3z"/>
	<path class="st4" d="M339.2,328.1c0.3-1.2,0.4-3.3-3.4-4.5c-1.9-0.5-2-0.5-2.5-0.8c-0.8-0.6-2.4-1.5-2.7-2.3l-0.4-0.3l-8.2,0
		c-0.2,2.1,0.5,4.1,0.1,6.2c0,0.2-0.1,0.3-0.1,0.5c1.6,0.4,3.8,0.5,3.8,0.5S334.8,329.7,339.2,328.1z"/>
	<path class="st11" d="M300.1,229.8c0,0-1,11-0.7,16.6c0.3,5.6,3.1,26.5,3.1,32.3s-5.2,40.4-3.8,41.8c1.4,1.4,5.4,0.9,7.3,0.9
		s8.2-38.6,8.2-38.6s2.1-16.8,1.3-26.6c-0.2-2-0.2-3.9-0.3-5.9c-0.1-1,0.4-1.6,1,1.1c0.2,1,4.9,19.3,5.6,27.9
		c1.4,18-0.3,41.5-0.3,41.5s0,0.6,4,0.9c3.7,0.3,4.6-1.2,4.6-1.2s4.7-24.3,4.1-41.1c-0.3-6.5-2-20-2.9-31.3
		c-1-11.6,1.4-21.4-1.9-21.7L300.1,229.8z"/>
	<path class="st12" d="M334.1,279.2c-0.3-6.5-2-20-2.9-31.3c-1-11.6,1.4-21.4-1.9-21.7l-20.9,2.6c0,0.2-1.6,0.6-1.6,0.8
		c-1.3,8.2-2.7,14.3-2.2,22.8c0.5,7.4,2.8,15.8,2.1,23.1c-1.4,15.3-3.3,30.7-5,46c1.6,0.1,3.3-0.1,4.4-0.1c1.9,0,8.2-38.6,8.2-38.6
		s2.1-16.8,1.3-26.6c-0.2-2-0.2-3.9-0.3-5.9c0-0.6,3.7-5,4.2,0.6c1.2,14.3,7.1,22.9,5.5,37.8c-0.8,7.8,0.7,17.4-0.1,25.2
		c-0.2,2.3-1,5.6-1.3,7.7c5.9,0.7,6.6-1.3,6.6-1.3S334.8,295.9,334.1,279.2z"/>
	<path class="st13" d="M310.6,162.9c0,0-10.2,0.6-12.6,3.5c-2.2,2.7-6.7,13-6.7,15.3c0,1.8,9.4,4.7,9.4,4.7s-1.5,27.2-1.6,30
		c0,2.8-1.9,13.1,0.2,13.7c0.2,0.1,0.4,0.1,0.7,0.2c4.9,1,23.8,3.4,32.5-0.3c1.1-0.5-0.9-43.8-0.9-43.8s7.8-2.7,8.7-5.2
		c0.7-2.1-3.6-12.6-7.9-15.8c-3-2.2-9.7-2.2-9.7-2.2s-0.2,4.5-5.9,4.5C310.1,167.5,310.6,162.9,310.6,162.9z"/>
	<path class="st14" d="M339.5,178.7c-2-4.5-4.2-11-8.8-12.1c-2.9-0.7-4-1.1-7.1-1.1c-0.6,1.8-3.3,3-5,3.2c-1.6,0.1-4.7,1-7.9-2.1
		c-0.3,0-0.5,0.1-0.8,0.1c-6.3,0.1-7.5,3.9-9.1,9.2c-0.9,3.2-1.8,6.3-2.8,9.5c1,0.3,2.3,0.8,2.8,1c2.2-0.1,3.2,2.4,3.5,5.3
		c0.8,7-1.5,32.7-0.4,39.2c7.5,1.1,21.7,2.1,28.9-0.9c1.1-0.5-0.9-43.8-0.9-43.8s7.8-2.7,8.7-5.2
		C340.5,180.7,339.8,179.3,339.5,178.7z"/>
	<path class="st0" d="M228.3,93.1c0,0,24.4-15.4,36-13c15.4,3.1,27.8,17.8,34.8,23.8c1.1,1-13.1,4.4-19.6-1.3
		c-4.4-3.9-1.7-9.5-12.4-5.1c-1.3,0.5-7.7,8.6-11.8,0.7c-1.9-3.7-1.8-7.1-10.3-4.3C230.6,98.8,228.3,93.1,228.3,93.1z"/>
	<path class="st0" d="M383.7,105.2c0,0,13.5-8.7,21.6-5.1c5,2.2,11.3,12.4,9.8,15c-1.5,2.6-11.6-3.5-13.4-4s-1.1-6-7.4-1.9
		c-6.3,4.1-5.6-0.6-7-1.6C385.4,106.4,378.1,111.6,383.7,105.2z"/>
	<path class="st15" d="M305.8,140.5C305.8,140.5,305.8,140.5,305.8,140.5c-1.7-4.7-3.5-10.7,0.5-13.5c-1.1,0.2-3.2,1-3.5,4.1
		c-0.4,4.1,1.3,10.3,1.3,10.3s0.9-0.5,1.7,0c0.1,0.1,0.1,0,0.1-0.2C305.9,141,305.9,140.7,305.8,140.5z"/>
	<path class="st15" d="M307,127c0,0,4.7-1.9,9.4,2c2.2,1.8-1.1-4.9-4.7-6C311.7,123,308,122.1,307,127z"/>
	<path class="st10" d="M317,142c0-0.6-0.4-1-1-1h-6c-0.6,0-1,0.4-1,1v3c0,0.6,0.4,1,1,1h6c0.6,0,1-0.4,1-1V142z M315.7,145h-5.5
		c-0.7,0-0.5-1.4-0.5-2.1c0-0.6,0.6-0.9,1.3-0.9h4c0.7,0,1.2,0.5,1.2,0.8C316.2,144.2,316.4,145,315.7,145z"/>
	<path class="st10" d="M326,142c0-0.6-0.4-1-1-1h-6c-0.6,0-1,0.4-1,1v3c0,0.6,0.4,1,1,1h6c0.6,0,1-0.4,1-1V142z M324.7,145h-5.2
		c-0.7,0-0.6-1.4-0.6-2.1c0-0.6,0.3-0.9,1-0.9h4c0.7,0,1.2,0.4,1.2,0.7C325.2,144.1,325.4,145,324.7,145z"/>
	<path class="st7" d="M311.3,156.9c0,0,1.5,1.9,6.2,1.7c2.3-0.1,3.9-1.1,3.9-1.1l0.3,5l1.1,0.4c0,0,0.2,3.1-3.3,4.1
		c-2,0.6-5.3,0.5-6.8-0.5c-1.5-1,3.3-0.1,3.3-2.6C316.2,161.5,311.3,156.9,311.3,156.9z"/>
	<path class="st10" d="M313.7,143.7h-1.3c-0.2,0-0.4-0.2-0.4-0.4v-0.5c0-0.2,0.2-0.4,0.4-0.4h1.3c0.2,0,0.4,0.2,0.4,0.4v0.5
		C314.1,143.5,313.9,143.7,313.7,143.7z"/>
	<path class="st10" d="M323.1,143.7h-1.3c-0.2,0-0.4-0.2-0.4-0.4v-0.5c0-0.2,0.2-0.4,0.4-0.4h1.3c0.2,0,0.4,0.2,0.4,0.4v0.5
		C323.6,143.5,323.4,143.7,323.1,143.7z"/>
	<polygon class="st10" points="306.8,141.9 309.1,142.8 309.1,141.7 306.6,141.2 	"/>
	<polygon class="st10" points="327,142 327.1,141.4 325.9,141.6 325.9,142.6 	"/>
	<rect x="316.4" y="141.6" class="st10" width="1.9" height="0.9"/>
	<path class="st5" d="M305.5,163.5c0.1,17.6-4.8,22.9-4.8,22.9l-0.2,3.5c0,0,8.8-5.3,8-26.8C308.5,162.3,305.5,162.7,305.5,163.5z"
		/>
	<path class="st5" d="M327.4,163.5c-0.1,17.6,4.2,22.7,4.2,22.7l0.4,4.4c0,0-8.5-5.9-7.7-27.5C324.4,162.3,327.4,162.7,327.4,163.5z
		"/>
	<path class="st16" d="M373,287h22.3c0,0,4.5-8.9-1.3-10.8C388.2,274.4,371.5,282,373,287z"/>
	<path class="st16" d="M406.7,282.8c0,0-8.9-4.4-9.8-1.3c-0.9,3.2-1.8,5.3-1.8,5.3l11.1,0.4C406.3,287.2,410.4,286.5,406.7,282.8z"
		/>
	<path class="st17" d="M395.3,277.8c-0.5,1.5-1.3,2.9-2.7,4.3c-2.3,2.4-5.8,4.1-9.2,4.5c-3.4,0.4-6.7-0.8-10.1-0.9
		c-0.5,0.8-0.7,1.6-0.4,2.3h22.3C395.3,287.9,399,280.5,395.3,277.8z"/>
	<path class="st17" d="M402.6,286c-3.2,0-4.8-2.2-5-4.6c-0.4,0.2-0.6,0.5-0.7,0.9c-0.7,3.2-1.6,5.5-1.6,5.5h11.1
		c0,0,3.6-1.1,0.8-4.3C406.3,285,404.7,286,402.6,286z"/>
	<linearGradient id="SVGID_3_" gradientUnits="userSpaceOnUse" x1="1" y1="201.5" x2="207" y2="201.5">
		<stop  offset="0" style="stop-color:#f8fafc"/>
		<stop  offset="1" style="stop-color:#f8fafc;stop-opacity:0"/>
	</linearGradient>
	<rect x="1" y="0" class="st18" width="206" height="403"/>

		<linearGradient id="SVGID_4_" gradientUnits="userSpaceOnUse" x1="-474" y1="201.5" x2="-268" y2="201.5" gradientTransform="matrix(-1 0 0 1 148 0)">
		<stop  offset="0" style="stop-color:#f8fafc"/>
		<stop  offset="1" style="stop-color:#f8fafc;stop-opacity:0"/>
	</linearGradient>
	<polygon class="st19" points="416,403 622,403 622,0 416,0 	"/>
	<g>
		<path class="st20" d="M467,357c0,6.1-23.5,11-52.4,11c-28.9,0-52.4-4.9-52.4-11c0-6.1,23.5-11,52.4-11C443.5,346,467,351,467,357z
			"/>
		<g class="st21">
			<path class="st22" d="M414.5,362.8c-13.9,0-25.3-11.3-25.3-25.3h1.2c0,13.3,10.8,24.1,24.1,24.1s24.1-10.8,24.1-24.1h1.2
				C439.8,351.5,428.4,362.8,414.5,362.8z"/>
			<path class="st22" d="M419.1,360.3c-7.7,0-15.3-3.5-20.3-10.1l1-0.7c8,10.6,23.1,12.8,33.7,4.9c10.6-8,12.8-23.1,4.9-33.7l1-0.7
				c8.4,11.2,6.1,27-5.1,35.4C429.7,358.6,424.4,360.3,419.1,360.3z"/>
			<path class="st22" d="M399.7,345.6c-7.3-11.9-3.6-27.5,8.3-34.8c11.9-7.3,27.5-3.6,34.8,8.3l-1,0.6c-7-11.3-21.8-14.8-33.1-7.9
				c-11.3,7-14.8,21.8-7.9,33.1L399.7,345.6z"/>
			<path class="st22" d="M388.8,348c-7.3-11.9-3.6-27.5,8.3-34.8c11.9-7.3,27.5-3.6,34.8,8.3l-1,0.6c-3.4-5.5-8.7-9.3-14.9-10.8
				c-6.3-1.5-12.7-0.5-18.2,2.9c-11.3,7-14.8,21.8-7.9,33.1L388.8,348z"/>
			<path class="st22" d="M414.1,350.5c-4.1,0-8.1-1-11.9-3c-6-3.2-10.3-8.5-12.3-14.9c-2-6.5-1.3-13.3,1.9-19.3l1.1,0.6
				c-3,5.7-3.7,12.2-1.8,18.3c1.9,6.2,6,11.2,11.7,14.2c5.7,3,12.2,3.7,18.3,1.8c6.2-1.9,11.2-6,14.2-11.7l1.1,0.6
				c-3.2,6-8.5,10.3-14.9,12.3C419.1,350.1,416.6,350.5,414.1,350.5z"/>
			<path class="st22" d="M422.2,351.9c-6.7,0-13-2.6-17.8-7.3c-4.8-4.8-7.5-11.1-7.5-17.8l1.2,0c0,6.4,2.6,12.5,7.1,17
				c4.5,4.5,10.6,7,16.9,7c0,0,0.1,0,0.1,0c6.4,0,12.5-2.6,17-7.1c4.5-4.6,7-10.6,7-17.1l1.2,0c0,6.8-2.6,13.1-7.3,17.9
				c-4.8,4.8-11.1,7.5-17.8,7.5C422.3,351.9,422.2,351.9,422.2,351.9z"/>
			<path class="st22" d="M413.8,355.7c-13.9,0-25.2-11.3-25.3-25.2l1.2,0c0.1,13.2,10.9,24,24.1,24c0,0,0.1,0,0.1,0
				c6.4,0,12.5-2.6,17-7.1c4.5-4.6,7-10.6,7-17.1l1.2,0c0,6.8-2.6,13.1-7.3,17.9c-4.8,4.8-11.1,7.5-17.8,7.5
				C413.9,355.7,413.9,355.7,413.8,355.7z"/>
			<path class="st22" d="M431,342.9l-1.1-0.5c5.5-12.1,0.2-26.4-11.9-31.9c-5.8-2.7-12.4-2.9-18.4-0.7c-6,2.2-10.8,6.7-13.5,12.5
				l-1.1-0.5c2.8-6.1,7.8-10.8,14.2-13.2c6.3-2.4,13.2-2.1,19.3,0.7C431.3,315.2,436.9,330.3,431,342.9z"/>
			<path class="st22" d="M433,355l-1.1-0.5c2.7-5.8,2.9-12.4,0.7-18.4c-2.2-6-6.7-10.8-12.5-13.5c-12.1-5.5-26.4-0.2-31.9,11.9
				l-1.1-0.5c5.8-12.7,20.8-18.3,33.5-12.4c6.1,2.8,10.8,7.8,13.2,14.2C436.1,342,435.9,348.8,433,355z"/>
			<path class="st22" d="M433,360.4l-1.1-0.5c2.7-5.8,2.9-12.4,0.7-18.4c-2.2-6-6.7-10.8-12.5-13.5c-12.1-5.5-26.4-0.2-31.9,11.9
				l-1.1-0.5c5.8-12.7,20.8-18.3,33.5-12.4c6.1,2.8,10.8,7.8,13.2,14.2C436.1,347.4,435.9,354.3,433,360.4z"/>
			<path class="st22" d="M404.1,358.4c-7,0-13.9-2.9-18.9-8.5l0.9-0.8c8.8,9.9,24.1,10.8,34,2c9.9-8.8,10.8-24.1,2-34l0.9-0.8
				c9.3,10.4,8.3,26.4-2.1,35.7C416.1,356.3,410.1,358.4,404.1,358.4z"/>
			<path class="st22" d="M392.3,355c-3.5-5.7-4.6-12.5-3.1-19.1c1.6-6.6,5.6-12.1,11.3-15.7c11.9-7.3,27.5-3.6,34.8,8.2l-1,0.6
				c-7-11.3-21.8-14.8-33.1-7.8c-5.5,3.4-9.3,8.7-10.8,14.9c-1.5,6.3-0.4,12.7,2.9,18.2L392.3,355z"/>
			<path class="st22" d="M426.5,365.6c-10.4,0-20.2-6.5-23.8-16.8c-2.3-6.4-1.9-13.2,1-19.3c2.9-6.1,8-10.7,14.4-13l0.4,1.1
				c-6.1,2.2-10.9,6.5-13.7,12.4c-2.8,5.8-3.1,12.3-0.9,18.4c4.5,12.5,18.3,19.1,30.8,14.6l0.4,1.1
				C432.2,365.1,429.3,365.6,426.5,365.6z"/>
			<path class="st22" d="M427.6,356.3c-3.7,0-7.4-0.8-10.8-2.5c-6.1-2.9-10.7-8-13-14.4c-4.7-13.1,2.2-27.6,15.3-32.3l0.4,1.1
				c-12.5,4.5-19.1,18.3-14.6,30.8c2.2,6.1,6.5,10.9,12.4,13.7c5.8,2.8,12.3,3.1,18.4,0.9l0.4,1.1
				C433.3,355.8,430.4,356.3,427.6,356.3z"/>
			<path class="st22" d="M434.6,352.7c-10.4,0-20.2-6.5-23.8-16.8c-2.3-6.4-1.9-13.2,1-19.3c2.9-6.1,8-10.7,14.4-13l0.4,1.1
				c-6.1,2.2-10.9,6.5-13.7,12.4c-2.8,5.8-3.1,12.3-0.9,18.4c4.5,12.5,18.3,19.1,30.8,14.6l0.4,1.1
				C440.2,352.2,437.4,352.7,434.6,352.7z"/>
			<path class="st22" d="M429.4,348.7c-2,0-4-0.2-6-0.7c-6.6-1.6-12.1-5.6-15.6-11.4c-3.5-5.8-4.6-12.6-3-19.1
				c1.6-6.6,5.6-12.1,11.4-15.6l0.6,1c-5.5,3.4-9.3,8.6-10.9,14.9c-1.5,6.3-0.5,12.7,2.9,18.2c3.4,5.5,8.6,9.3,14.9,10.9
				c6.3,1.5,12.7,0.5,18.2-2.9l0.6,1C438.5,347.4,434,348.7,429.4,348.7z"/>
			<path class="st22" d="M430,359.4c-2,0-4-0.2-6-0.7c-6.6-1.6-12.1-5.6-15.6-11.4c-3.5-5.8-4.6-12.6-3-19.1
				c1.6-6.6,5.6-12.1,11.4-15.6l0.6,1c-5.5,3.4-9.3,8.6-10.9,14.9c-1.5,6.3-0.5,12.7,2.9,18.2c3.4,5.5,8.6,9.3,14.9,10.9
				c6.3,1.5,12.7,0.5,18.2-2.9l0.6,1C439.1,358.1,434.6,359.4,430,359.4z"/>
			<path class="st22" d="M441.9,346l-1.1-0.4c4.5-12.5-2.1-26.3-14.6-30.8c-12.5-4.5-26.3,2.1-30.8,14.6l-1.1-0.4
				c4.7-13.1,19.2-20,32.3-15.3C439.7,318.4,446.6,332.9,441.9,346z"/>
			<path class="st22" d="M444,352.2l-1.2-0.2c2.1-13.1-6.8-25.5-19.9-27.6c-13.1-2.1-25.5,6.8-27.6,19.9l-1.2-0.2
				c2.2-13.8,15.3-23.1,29-20.9C436.9,325.4,446.2,338.4,444,352.2z"/>
			<path class="st22" d="M408.5,366.9c-11-8.5-13-24.5-4.5-35.5c4.1-5.3,10.1-8.7,16.8-9.6c6.7-0.8,13.3,1,18.7,5.1l-0.7,0.9
				c-5.1-3.9-11.4-5.7-17.8-4.9c-6.4,0.8-12.1,4-16,9.1c-8.1,10.5-6.2,25.7,4.3,33.8L408.5,366.9z"/>
			<path class="st22" d="M429.6,351.5l-1.1-0.4c4.5-12.5-2.1-26.3-14.6-30.8c-6.1-2.2-12.6-1.8-18.4,0.9
				c-5.8,2.8-10.2,7.6-12.4,13.7l-1.1-0.4c2.3-6.4,6.9-11.5,13-14.3c6.1-2.9,13-3.2,19.3-1C427.4,323.9,434.3,338.4,429.6,351.5z"/>
			<path class="st22" d="M429.6,359.4l-1.1-0.4c4.5-12.5-2.1-26.3-14.6-30.8c-4.2-1.5-8.8-1.8-13.2-0.9l-0.3-1.2
				c4.6-1,9.4-0.7,13.8,0.9C427.4,331.8,434.3,346.2,429.6,359.4z"/>
			<path class="st22" d="M415.7,364.6c-3.5-3.2-6-7.3-7.2-11.8c-1.8-6.5-1-13.3,2.3-19.2c3.3-5.9,8.7-10.1,15.2-11.9l0.3,1.1
				c-6.2,1.7-11.4,5.8-14.5,11.4c-3.2,5.6-4,12.1-2.2,18.3c1.2,4.3,3.6,8.2,6.9,11.3L415.7,364.6z"/>
			<path class="st22" d="M411.6,362.2c-1.4-4.5-1.6-9.3-0.5-13.9c3.4-13.5,17.1-21.8,30.7-18.4l-0.3,1.2c-12.9-3.2-26,4.6-29.2,17.5
				c-1.1,4.4-0.9,8.9,0.4,13.2L411.6,362.2z"/>
			<path class="st22" d="M442.4,354c-0.5-6.4-3.5-12.2-8.4-16.4c-4.9-4.2-11.1-6.2-17.5-5.7c-4.5,0.4-8.8,2-12.4,4.6l-0.7-1
				c3.8-2.8,8.3-4.5,13-4.9c6.7-0.5,13.3,1.6,18.4,6c5.1,4.4,8.3,10.5,8.8,17.2L442.4,354z"/>
			<path class="st22" d="M428.9,353c-0.5-6.4-3.5-12.2-8.4-16.4c-4.9-4.2-11.1-6.2-17.5-5.7c-4.5,0.4-8.8,2-12.4,4.6l-0.7-1
				c3.8-2.8,8.3-4.5,13-4.9c6.7-0.5,13.3,1.6,18.4,6c5.1,4.4,8.3,10.5,8.8,17.2L428.9,353z"/>
			<path class="st22" d="M421.1,359.6l-1.1-0.4c3.9-12.7-3.3-26.2-16-30.1c-4.3-1.3-8.9-1.4-13.2-0.3l-0.3-1.2
				c4.6-1.2,9.3-1.1,13.9,0.3C417.7,332.1,425.2,346.3,421.1,359.6z"/>
			<path class="st22" d="M421.7,362.5c-1.3,0-2.7-0.1-4-0.3c-6.7-1.1-12.5-4.7-16.5-10.1c-4-5.5-5.6-12.1-4.5-18.8l1.2,0.2
				c-1,6.4,0.5,12.7,4.3,17.9c3.8,5.2,9.4,8.6,15.7,9.6c6.4,1,12.7-0.5,17.9-4.3c5.2-3.8,8.6-9.4,9.6-15.7l1.2,0.2
				c-1.1,6.7-4.7,12.5-10.1,16.5C432.2,360.9,427,362.5,421.7,362.5z"/>
		</g>
	</g>
	<g>
		<path class="st23" d="M203.4,231c0,0,7.3-3.4,8.2-12.4c0.9-9-0.5-15.3,2-17c2.5-1.7,6.2-3.6,9.1,0c2.9,3.6,0.5,19.8-2.6,24.3
			c-3.1,4.5-14.2,14.5-17.6,16.5C199,244.5,203.4,231,203.4,231z"/>
		<path class="st23" d="M204.6,264c0,3.8-13.6,8.9-13.6,5.2v-79.9c0-6.6,7.2-12.2,10.8-11.2c1.5,0.4,2.8,1.7,2.8,5.5V264z"/>
		<path class="st23" d="M192.9,222.1c0,0-9.1-0.6-9.9-7.7c-0.8-7.1,0.2-15-1.5-17.3c-1.7-2.3-9.4-2.9-10.5,2.9
			c-1.1,5.9,0.3,20.9,6.3,25.2c6,4.3,12.8,4.2,15.6,3.6C195.6,228.1,192.9,222.1,192.9,222.1z"/>
		<path class="st17" d="M201.6,182.5c-1.4-1.2-5.6,3.1-5.1,6.2c0.5,3.1,1.5,28.3,4,28.7C203,217.8,203.8,184.3,201.6,182.5z"/>
	</g>
	<path class="st6" d="M234,266c0,4.4-16.4,8-36.6,8c-20.2,0-36.6-3.6-36.6-8c0-4.4,16.4-8,36.6-8C217.6,258,234,261.6,234,266z"/>
</g>
</svg>
